<svg width="18" height="19" viewBox="0 0 18 19" fill="none" xmlns="http://www.w3.org/2000/svg">
<path d="M7.83294 14.8707V1.83317C7.83294 1.50262 7.94475 1.22553 8.16836 1.00192C8.39197 0.778309 8.66905 0.666504 8.99961 0.666504C9.33016 0.666504 9.60725 0.778309 9.83086 1.00192C10.0545 1.22553 10.1663 1.50262 10.1663 1.83317V14.8707L15.8829 9.15401C16.1163 8.92067 16.3885 8.80887 16.6996 8.81859C17.0107 8.82831 17.2829 8.94984 17.5163 9.18317C17.7302 9.4165 17.842 9.68873 17.8517 9.99984C17.8614 10.3109 17.7496 10.5832 17.5163 10.8165L9.81628 18.5165C9.69961 18.6332 9.57322 18.7158 9.43711 18.7644C9.301 18.813 9.15516 18.8373 8.99961 18.8373C8.84405 18.8373 8.69822 18.813 8.56211 18.7644C8.426 18.7158 8.29961 18.6332 8.18294 18.5165L0.482943 10.8165C0.269054 10.6026 0.162109 10.3353 0.162109 10.0144C0.162109 9.69359 0.269054 9.4165 0.482943 9.18317C0.716276 8.94984 0.993359 8.83317 1.31419 8.83317C1.63503 8.83317 1.91211 8.94984 2.14544 9.18317L7.83294 14.8707Z" fill="#160B75"/>
</svg>
