<svg width="60" height="60" viewBox="0 0 60 60" fill="none" xmlns="http://www.w3.org/2000/svg">
<ellipse cx="25.0746" cy="27.0565" rx="9.87347" ry="8.16737" transform="rotate(20.0422 25.0746 27.0565)" fill="#E0EDFF"/>
<ellipse cx="36.8161" cy="13.2804" rx="6.00635" ry="4.21032" transform="rotate(20.0422 36.8161 13.2804)" fill="#E0EDFF"/>
<path d="M6.24583 36.3895C6.1138 33.8914 14.2895 30.1077 33.1953 30.3638C40.6582 30.4649 52.8517 32.4602 53.0133 37.0231M6.24583 36.3895C7.16844 41.7514 24.066 43.0785 27.5521 43.1258C32.6536 43.1949 53.1748 41.5859 53.0133 37.0231M6.24583 36.3895C6.51714 40.851 13.408 53.622 27.875 54.5996C48.0093 55.96 52.9847 39.1326 53.0133 37.0231" stroke="black"/>
<path d="M33.9983 25.9394C34.1141 20.0162 28.8425 15.2525 24.9245 12C22.4758 14.4394 16 20.0152 16 25.9394C16 31.8534 20.2585 35 24.9245 35C29.5905 35 33.8892 31.5152 33.9983 25.9394Z" stroke="black"/>
<path d="M41.999 12.8788C42.0634 9.53088 39.1347 6.83838 36.9581 5C35.5977 6.37879 32 9.5303 32 12.8788C32 16.2215 34.3658 18 36.9581 18C39.5503 18 41.9385 16.0303 41.999 12.8788Z" stroke="black"/>
</svg>
