<svg width="60" height="60" viewBox="0 0 60 60" fill="none" xmlns="http://www.w3.org/2000/svg">
<ellipse cx="40.4393" cy="40.5923" rx="14.591" ry="8.24817" transform="rotate(-127.615 40.4393 40.5923)" fill="#E0EDFF"/>
<path d="M49.1802 6.47135C51.6798 6.37069 55.3605 14.5932 54.8671 33.4944C54.6723 40.9554 52.5241 53.1229 47.9595 53.2271M49.1802 6.47135C43.8071 7.32656 42.268 24.2062 42.177 27.6914C42.0439 32.7916 43.395 53.3314 47.9595 53.2271M49.1802 6.47135C44.7156 6.68662 31.8591 13.4166 30.7001 27.8702C29.0869 47.9859 45.8506 53.1721 47.9595 53.2271" stroke="black"/>
<path d="M28.5 27L28.8737 27.3322L29.1869 26.9798L28.8536 26.6464L28.5 27ZM8.5 49.5L13.9794 47.6808L9.66423 43.8451L8.5 49.5ZM23.1464 22.3536L28.1464 27.3536L28.8536 26.6464L23.8536 21.6464L23.1464 22.3536ZM28.1263 26.6678L11.1159 45.8045L11.8633 46.4688L28.8737 27.3322L28.1263 26.6678Z" fill="black"/>
<path d="M14 9.22082L14.9484 11.3334C15.1389 11.7577 15.6824 11.8817 16.038 11.5821L17.8091 10.0902L17.747 12.4052C17.7345 12.87 18.1704 13.2175 18.6208 13.102L20.8638 12.5263L19.8035 14.585L20.2067 14.7927L19.8035 14.585C19.5906 14.9984 19.8324 15.5006 20.2884 15.5919L22.5591 16.0464L20.7105 17.4412C20.3393 17.7213 20.3393 18.2787 20.7105 18.5588L22.5591 19.9535L20.2884 20.4081C19.8324 20.4994 19.5906 21.0016 19.8035 21.415L20.248 21.1861L19.8035 21.415L20.8638 23.4737L18.6208 22.898C18.1704 22.7825 17.7345 23.13 17.747 23.5948L17.8091 25.9098L16.038 24.4179C15.6824 24.1183 15.1389 24.2423 14.9484 24.6666L14 26.7792L13.0516 24.6666C12.8611 24.2423 12.3176 24.1183 11.962 24.4179L10.1909 25.9098L10.253 23.5948C10.2655 23.13 9.82961 22.7825 9.37922 22.898L7.13616 23.4737L8.19654 21.415C8.40945 21.0016 8.16758 20.4994 7.71163 20.4081L5.44094 19.9535L7.28954 18.5588C7.66073 18.2787 7.66073 17.7213 7.28954 17.4412L5.44094 16.0464L7.71163 15.5919C8.16758 15.5006 8.40946 14.9984 8.19654 14.585L7.13616 12.5263L9.37922 13.102C9.82961 13.2175 10.2655 12.87 10.253 12.4051L10.1909 10.0902L11.962 11.5821C12.3176 11.8817 12.8611 11.7576 13.0516 11.3334L14 9.22082ZM23.0925 15.644L23.0919 15.6444L23.0925 15.644ZM21.1698 11.9322L21.1695 11.9329L21.1698 11.9322ZM18.3202 9.65973C18.3201 9.65984 18.32 9.65996 18.3198 9.66007L18.3202 9.65973L18.127 9.43028L18.3202 9.65973Z" stroke="black"/>
<circle cx="14" cy="18" r="3.5" stroke="black"/>
</svg>
