<svg width="60" height="60" viewBox="0 0 60 60" fill="none" xmlns="http://www.w3.org/2000/svg">
<ellipse cx="24.1812" cy="32.9623" rx="16.0699" ry="9" transform="rotate(20.0422 24.1812 32.9623)" fill="#E0EDFF"/>
<path d="M30.2472 18.0173C18 18.5173 11.9551 26.0673 8 29.6942C12.2846 33.4686 19.3708 41.0173 30.2472 41.0173C39.6404 41.0173 48.0449 33.3507 52 29.6942C48.5393 26.0673 41.3121 17.5656 30.2472 18.0173Z" stroke="black"/>
<circle cx="30.5" cy="29.5173" r="11" stroke="black"/>
<circle cx="30.5" cy="29.5173" r="4" stroke="black"/>
<path d="M9.24412 10.5L9.29479 10.7052L9.50003 10.7559L14.5397 12L9.50003 13.2441L9.29479 13.2948L9.24412 13.5L8 18.5397L6.75588 13.5L6.70521 13.2948L6.49997 13.2441L1.46033 12L6.49997 10.7559L6.70521 10.7052L6.75588 10.5L8 5.46033L9.24412 10.5Z" stroke="black" stroke-width="0.7"/>
<path d="M52.8481 41.8959L52.8988 42.1012L53.1041 42.1519L56.5397 43L53.1041 43.8481L52.8988 43.8988L52.8481 44.1041L52 47.5397L51.1519 44.1041L51.1012 43.8988L50.8959 43.8481L47.4603 43L50.8959 42.1519L51.1012 42.1012L51.1519 41.8959L52 38.4603L52.8481 41.8959Z" stroke="black" stroke-width="0.7"/>
<path d="M16.6552 15.0889L16.7058 15.2942L16.9111 15.3448L17.5397 15.5L16.9111 15.6552L16.7058 15.7058L16.6552 15.9111L16.5 16.5397L16.3448 15.9111L16.2942 15.7058L16.0889 15.6552L15.4603 15.5L16.0889 15.3448L16.2942 15.2942L16.3448 15.0889L16.5 14.4603L16.6552 15.0889Z" stroke="black" stroke-width="0.7"/>
</svg>
