<svg width="57" height="57" viewBox="0 0 57 57" fill="none" xmlns="http://www.w3.org/2000/svg">
<circle cx="29.0639" cy="11.0641" r="8.62933" transform="rotate(20.0422 29.0639 11.0641)" fill="#FFD3D3"/>
<path d="M1.23437 37.9256C1.10852 34.9705 11.8422 32.1425 30.7481 32.3986C38.211 32.4997 56.837 32.5424 55.7361 37.7904M1.23437 37.9256C2.1437 44.2667 22.2898 43.8803 25.7759 43.9275C30.8774 43.9967 54.2209 45.0136 55.7361 37.7904M1.23437 37.9256C1.31264 39.5129 4.49975 42.1021 10.5722 46.0743C11.5097 46.6875 12.3045 47.4932 12.9665 48.397C16.3238 52.9808 20.7701 56.1923 29.6973 56.1927C37.0032 56.193 41.3647 54.4949 44.3507 49.3171C45.1908 47.8603 46.2891 46.5486 47.6897 45.6177C53.5378 41.7309 55.7256 38.5632 55.7361 37.7904" stroke="black"/>
<mask id="mask0_119_369" style="mask-type:alpha" maskUnits="userSpaceOnUse" x="16" y="0" width="24" height="24">
<rect x="16" width="24" height="24" fill="#D9D9D9"/>
</mask>
<g mask="url(#mask0_119_369)">
<path d="M28 12.7077L31.2462 15.9538C31.3397 16.0474 31.4545 16.0974 31.5904 16.1039C31.7263 16.1103 31.8474 16.0603 31.9538 15.9538C32.0603 15.8474 32.1135 15.7295 32.1135 15.6C32.1135 15.4705 32.0603 15.3526 31.9538 15.2462L28.7077 12L31.9538 8.75385C32.0474 8.66027 32.0974 8.54553 32.1039 8.40963C32.1103 8.27373 32.0603 8.15257 31.9538 8.04615C31.8474 7.93973 31.7295 7.88653 31.6 7.88653C31.4705 7.88653 31.3526 7.93973 31.2462 8.04615L28 11.2923L24.7538 8.04615C24.6603 7.95257 24.5455 7.90257 24.4096 7.89615C24.2737 7.88973 24.1526 7.93973 24.0462 8.04615C23.9397 8.15257 23.8865 8.27052 23.8865 8.4C23.8865 8.52948 23.9397 8.64743 24.0462 8.75385L27.2923 12L24.0462 15.2462C23.9526 15.3397 23.9026 15.4545 23.8962 15.5904C23.8897 15.7263 23.9397 15.8474 24.0462 15.9538C24.1526 16.0603 24.2705 16.1135 24.4 16.1135C24.5295 16.1135 24.6474 16.0603 24.7538 15.9538L28 12.7077ZM28.0034 21C26.7588 21 25.5887 20.7638 24.4931 20.2915C23.3975 19.8192 22.4444 19.1782 21.634 18.3685C20.8235 17.5588 20.1819 16.6066 19.7091 15.512C19.2364 14.4174 19 13.2479 19 12.0034C19 10.7588 19.2362 9.58872 19.7085 8.4931C20.1808 7.39748 20.8218 6.44444 21.6315 5.63398C22.4412 4.82353 23.3934 4.18192 24.488 3.70915C25.5826 3.23638 26.7521 3 27.9966 3C29.2412 3 30.4113 3.23616 31.5069 3.70847C32.6025 4.18081 33.5556 4.82182 34.366 5.63152C35.1765 6.44122 35.8181 7.39337 36.2908 8.48795C36.7636 9.58255 37 10.7521 37 11.9966C37 13.2412 36.7638 14.4113 36.2915 15.5069C35.8192 16.6025 35.1782 17.5556 34.3685 18.366C33.5588 19.1765 32.6066 19.8181 31.512 20.2909C30.4174 20.7636 29.2479 21 28.0034 21ZM28 20C30.2333 20 32.125 19.225 33.675 17.675C35.225 16.125 36 14.2333 36 12C36 9.76667 35.225 7.875 33.675 6.325C32.125 4.775 30.2333 4 28 4C25.7667 4 23.875 4.775 22.325 6.325C20.775 7.875 20 9.76667 20 12C20 14.2333 20.775 16.125 22.325 17.675C23.875 19.225 25.7667 20 28 20Z" fill="#1C1B1F"/>
</g>
</svg>
