<svg width="49" height="58" viewBox="0 0 49 58" fill="none" xmlns="http://www.w3.org/2000/svg">
<circle cx="24.1494" cy="11.1962" r="8.62933" transform="rotate(20.0422 24.1494 11.1962)" fill="#9AEC98"/>
<path d="M1.24583 38.3895C1.1138 35.8914 9.2895 32.1077 28.1953 32.3638C35.6582 32.4649 47.8517 34.4602 48.0133 39.0231M1.24583 38.3895C2.16844 43.7514 19.066 45.0785 22.5521 45.1258C27.6536 45.1949 48.1748 43.5859 48.0133 39.0231M1.24583 38.3895C1.51714 42.851 8.40799 55.622 22.875 56.5996C43.0093 57.96 47.9847 41.1326 48.0133 39.0231" stroke="black"/>
<mask id="mask0_119_363" style="mask-type:alpha" maskUnits="userSpaceOnUse" x="13" y="0" width="24" height="24">
<rect x="13" width="24" height="24" fill="#D9D9D9"/>
</mask>
<g mask="url(#mask0_119_363)">
<path d="M23.5616 14.4923L21.0654 11.9962C20.9718 11.9026 20.8571 11.8526 20.7212 11.8462C20.5853 11.8397 20.4641 11.8897 20.3577 11.9962C20.2513 12.1026 20.1981 12.2205 20.1981 12.35C20.1981 12.4795 20.2513 12.5974 20.3577 12.7038L22.9962 15.3423C23.1577 15.5038 23.3461 15.5846 23.5616 15.5846C23.7769 15.5846 23.9654 15.5038 24.1269 15.3423L29.6039 9.86538C29.6974 9.77179 29.7474 9.65705 29.7538 9.52115C29.7603 9.38525 29.7103 9.2641 29.6039 9.1577C29.4974 9.05128 29.3795 8.99807 29.25 8.99807C29.1205 8.99807 29.0026 9.05128 28.8962 9.1577L23.5616 14.4923ZM25.0034 21C23.7588 21 22.5887 20.7638 21.4931 20.2915C20.3975 19.8192 19.4444 19.1782 18.634 18.3685C17.8235 17.5588 17.1819 16.6066 16.7091 15.512C16.2364 14.4174 16 13.2479 16 12.0034C16 10.7588 16.2362 9.58872 16.7085 8.4931C17.1808 7.39748 17.8218 6.44444 18.6315 5.63398C19.4412 4.82353 20.3934 4.18192 21.488 3.70915C22.5826 3.23638 23.7521 3 24.9966 3C26.2412 3 27.4113 3.23616 28.5069 3.70847C29.6025 4.18081 30.5556 4.82182 31.366 5.63152C32.1765 6.44122 32.8181 7.39337 33.2908 8.48795C33.7636 9.58255 34 10.7521 34 11.9966C34 13.2412 33.7638 14.4113 33.2915 15.5069C32.8192 16.6025 32.1782 17.5556 31.3685 18.366C30.5588 19.1765 29.6066 19.8181 28.512 20.2909C27.4174 20.7636 26.2479 21 25.0034 21ZM25 20C27.2333 20 29.125 19.225 30.675 17.675C32.225 16.125 33 14.2333 33 12C33 9.76667 32.225 7.875 30.675 6.325C29.125 4.775 27.2333 4 25 4C22.7667 4 20.875 4.775 19.325 6.325C17.775 7.875 17 9.76667 17 12C17 14.2333 17.775 16.125 19.325 17.675C20.875 19.225 22.7667 20 25 20Z" fill="#1C1B1F"/>
</g>
</svg>
