<svg width="60" height="60" viewBox="0 0 60 60" fill="none" xmlns="http://www.w3.org/2000/svg">
<ellipse cx="25.3166" cy="30.4293" rx="13.4829" ry="8.24817" transform="rotate(-139.831 25.3166 30.4293)" fill="#E0EDFF"/>
<mask id="mask0_49_494" style="mask-type:alpha" maskUnits="userSpaceOnUse" x="0" y="0" width="60" height="60">
<path d="M0 0H60V60H0V0Z" fill="#D9D9D9"/>
</mask>
<g mask="url(#mask0_49_494)">
<path d="M30 29.2502C28.7917 29.2502 27.7813 28.844 26.9688 28.0315C26.1562 27.219 25.75 26.2086 25.75 25.0002C25.75 23.7919 26.1562 22.7815 26.9688 21.969C27.7813 21.1565 28.7917 20.7502 30 20.7502C31.2083 20.7502 32.2188 21.1565 33.0312 21.969C33.8438 22.7815 34.25 23.7919 34.25 25.0002C34.25 26.2086 33.8438 27.219 33.0312 28.0315C32.2188 28.844 31.2083 29.2502 30 29.2502ZM18.25 52.5002V36.8752C16.6667 35.3752 15.4375 33.6001 14.5625 31.5498C13.6875 29.4995 13.25 27.3163 13.25 25.0002C13.25 20.3242 14.8717 16.3635 18.1151 13.1182C21.3585 9.87291 25.3168 8.25024 29.9901 8.25024C34.6634 8.25024 38.625 9.87291 41.875 13.1182C45.125 16.3635 46.75 20.3242 46.75 25.0002C46.75 27.3163 46.3125 29.4995 45.4375 31.5498C44.5625 33.6001 43.3333 35.3752 41.75 36.8752V52.5002L30 49.1252L18.25 52.5002ZM30 40.0002C34.1667 40.0002 37.7083 38.5419 40.625 35.6252C43.5417 32.7086 45 29.1669 45 25.0002C45 20.8336 43.5417 17.2919 40.625 14.3752C37.7083 11.4586 34.1667 10.0002 30 10.0002C25.8333 10.0002 22.2917 11.4586 19.375 14.3752C16.4583 17.2919 15 20.8336 15 25.0002C15 29.1669 16.4583 32.7086 19.375 35.6252C22.2917 38.5419 25.8333 40.0002 30 40.0002ZM20 50.1252L30 47.2502L40 50.1252V38.3752C38.625 39.4586 37.0788 40.2919 35.3613 40.8752C33.6439 41.4586 31.8522 41.7502 29.9863 41.7502C28.1204 41.7502 26.3333 41.4586 24.625 40.8752C22.9167 40.2919 21.375 39.4586 20 38.3752V50.1252Z" fill="#1C1B1F"/>
</g>
</svg>
