<svg width="61" height="60" viewBox="0 0 61 60" fill="none" xmlns="http://www.w3.org/2000/svg">
<ellipse cx="23.5251" cy="45.7461" rx="14.9134" ry="10.2562" transform="rotate(20.0422 23.5251 45.7461)" fill="#E0EDFF"/>
<path d="M12.5108 52.0106C10.6324 50.3582 13.7434 41.7808 27.3703 28.2484C32.7495 22.9066 42.8456 15.4595 46.2199 18.5355M12.5108 52.0106C16.9971 55.0938 29.9611 43.7673 32.4738 41.2721C36.1508 37.6205 49.5943 21.6114 46.2199 18.5355M12.5108 52.0106C15.8908 54.936 28.1842 57.6404 39.1701 47.8322C54.4595 34.1816 47.7065 20.0324 46.2199 18.5355" stroke="black"/>
<path d="M21.0063 12L18.2949 17.0972L24.0649 16.8968L21.0063 12ZM20.5416 13.024C20.5535 13.2999 20.7867 13.514 21.0626 13.5021C21.3385 13.4903 21.5526 13.257 21.5407 12.9811L20.5416 13.024ZM21.657 14.9347C21.6359 14.6593 21.3957 14.4532 21.1203 14.4742C20.845 14.4953 20.6389 14.7355 20.6599 15.0109L21.657 14.9347ZM20.8473 17.0056C20.8779 17.28 21.1253 17.4776 21.3997 17.4469C21.6741 17.4162 21.8717 17.1689 21.8411 16.8945L20.8473 17.0056ZM22.0953 18.8457C22.0545 18.5725 21.8001 18.3841 21.527 18.4249C21.2539 18.4656 21.0655 18.72 21.1062 18.9931L22.0953 18.8457ZM21.4386 20.9654C21.4897 21.2368 21.7512 21.4153 22.0225 21.3642C22.2939 21.3131 22.4725 21.0516 22.4213 20.7803L21.4386 20.9654ZM22.8217 22.697C22.7598 22.4279 22.4915 22.2598 22.2224 22.3217C21.9533 22.3835 21.7852 22.6518 21.8471 22.9209L22.8217 22.697ZM22.3342 24.8586C22.4071 25.1249 22.6821 25.2818 22.9485 25.2089C23.2148 25.1361 23.3717 24.8611 23.2988 24.5947L22.3342 24.8586ZM23.8575 26.4788C23.7734 26.2158 23.4919 26.0708 23.2289 26.155C22.9659 26.2392 22.821 26.5207 22.9051 26.7837L23.8575 26.4788ZM23.5585 28.6804C23.6542 28.9395 23.9417 29.0719 24.2008 28.9762C24.4598 28.8805 24.5922 28.593 24.4965 28.3339L23.5585 28.6804ZM25.217 30.1568C25.1097 29.9023 24.8164 29.7831 24.562 29.8904C24.3075 29.9977 24.1882 30.2909 24.2955 30.5454L25.217 30.1568ZM25.117 32.3744C25.2359 32.6236 25.5343 32.7292 25.7836 32.6102C26.0328 32.4913 26.1384 32.1929 26.0194 31.9436L25.117 32.3744ZM26.9041 33.6905C26.7735 33.4471 26.4704 33.3557 26.2271 33.4862C25.9838 33.6168 25.8923 33.9198 26.0229 34.1632L26.9041 33.6905ZM27.0127 35.9073C27.1547 36.1441 27.4618 36.221 27.6986 36.079C27.9355 35.937 28.0123 35.6299 27.8703 35.3931L27.0127 35.9073ZM28.9171 37.0473C28.7638 36.8176 28.4534 36.7556 28.2237 36.9088C27.9939 37.0621 27.9319 37.3725 28.0852 37.6022L28.9171 37.0473ZM29.2385 39.2436C29.4027 39.4657 29.7158 39.5126 29.9378 39.3484C30.1598 39.1842 30.2067 38.8711 30.0425 38.6491L29.2385 39.2436ZM31.2444 40.1945C31.0696 39.9807 30.7546 39.9491 30.5408 40.1238C30.327 40.2986 30.2953 40.6136 30.4701 40.8274L31.2444 40.1945ZM31.7769 42.3497C31.9618 42.5548 32.278 42.5712 32.4831 42.3863C32.6882 42.2014 32.7046 41.8853 32.5197 41.6801L31.7769 42.3497ZM33.8653 43.1026C33.6708 42.9066 33.3542 42.9054 33.1582 43.1C32.9622 43.2945 32.961 43.6111 33.1555 43.8071L33.8653 43.1026ZM34.6021 45.1966C34.8058 45.3831 35.1221 45.3692 35.3086 45.1655C35.4951 44.9619 35.4812 44.6456 35.2775 44.4591L34.6021 45.1966ZM36.7524 45.7469C36.5402 45.5703 36.2249 45.5991 36.0482 45.8113C35.8716 46.0235 35.9004 46.3388 36.1126 46.5155L36.7524 45.7469ZM37.6827 47.7614C37.9029 47.928 38.2165 47.8845 38.3831 47.6642C38.5496 47.4439 38.5061 47.1304 38.2859 46.9638L37.6827 47.7614ZM39.8735 48.1075C39.6457 47.9513 39.3345 48.0093 39.1783 48.2371C39.0222 48.4648 39.0801 48.776 39.3079 48.9322L39.8735 48.1075ZM40.9892 50.0292C41.2239 50.1747 41.5321 50.1024 41.6776 49.8677C41.8232 49.633 41.7509 49.3248 41.5162 49.1793L40.9892 50.0292ZM43.2064 50.1743C42.9653 50.0397 42.6607 50.1261 42.5262 50.3672C42.3916 50.6083 42.478 50.9129 42.7191 51.0475L43.2064 50.1743ZM44.492 51.9841C44.7391 52.1074 45.0393 52.007 45.1626 51.76C45.2859 51.5129 45.1856 51.2126 44.9385 51.0893L44.492 51.9841ZM46.7068 51.9209C46.4542 51.8093 46.159 51.9236 46.0473 52.1761C45.9357 52.4287 46.0499 52.7239 46.3025 52.8356L46.7068 51.9209ZM48.162 53.6045C48.4197 53.7038 48.7091 53.5754 48.8083 53.3177C48.9076 53.0601 48.7792 52.7707 48.5215 52.6714L48.162 53.6045ZM50.3624 53.3281C50.1 53.242 49.8175 53.3849 49.7315 53.6473C49.6454 53.9097 49.7883 54.1922 50.0507 54.2783L50.3624 53.3281ZM51.9801 54.8535C52.2468 54.9249 52.5209 54.7666 52.5923 54.4998C52.6638 54.2331 52.5054 53.9589 52.2386 53.8875L51.9801 54.8535ZM54.1325 54.3326C53.8617 54.2782 53.5982 54.4536 53.5438 54.7243C53.4894 54.9951 53.6648 55.2586 53.9355 55.313L54.1325 54.3326ZM20.6599 15.0109C20.7114 15.6857 20.774 16.3506 20.8473 17.0056L21.8411 16.8945C21.7691 16.2512 21.7076 15.598 21.657 14.9347L20.6599 15.0109ZM21.1062 18.9931C21.2058 19.6613 21.3168 20.3187 21.4386 20.9654L22.4213 20.7803C22.3019 20.1462 22.193 19.5014 22.0953 18.8457L21.1062 18.9931ZM21.8471 22.9209C21.9982 23.5785 22.1607 24.2243 22.3342 24.8586L23.2988 24.5947C23.1289 23.9737 22.9697 23.3412 22.8217 22.697L21.8471 22.9209ZM22.9051 26.7837C23.1116 27.4286 23.3296 28.0608 23.5585 28.6804L24.4965 28.3339C24.2727 27.7281 24.0595 27.1098 23.8575 26.4788L22.9051 26.7837ZM24.2955 30.5454C24.5583 31.1686 24.8324 31.7782 25.117 32.3744L26.0194 31.9436C25.7415 31.3613 25.4738 30.7658 25.217 30.1568L24.2955 30.5454ZM26.0229 34.1632C26.3425 34.759 26.6727 35.3402 27.0127 35.9073L27.8703 35.3931C27.5385 34.8396 27.2161 34.2721 26.9041 33.6905L26.0229 34.1632ZM28.0852 37.6022C28.4603 38.1646 28.8451 38.7116 29.2385 39.2436L30.0425 38.6491C29.6586 38.1299 29.2831 37.5961 28.9171 37.0473L28.0852 37.6022ZM30.4701 40.8274C30.8978 41.3507 31.3338 41.858 31.7769 42.3497L32.5197 41.6801C32.0872 41.2003 31.6617 40.7052 31.2444 40.1945L30.4701 40.8274ZM33.1555 43.8071C33.6317 44.2868 34.1143 44.7498 34.6021 45.1966L35.2775 44.4591C34.8012 44.0229 34.33 43.5709 33.8653 43.1026L33.1555 43.8071ZM36.1126 46.5155C36.6322 46.948 37.156 47.3632 37.6827 47.7614L38.2859 46.9638C37.7714 46.5748 37.2598 46.1693 36.7524 45.7469L36.1126 46.5155ZM39.3079 48.9322C39.8674 49.316 40.4284 49.6814 40.9892 50.0292L41.5162 49.1793C40.9683 48.8395 40.4201 48.4824 39.8735 48.1075L39.3079 48.9322ZM42.7191 51.0475C43.313 51.379 43.9046 51.6909 44.492 51.9841L44.9385 51.0893C44.3647 50.803 43.7867 50.4981 43.2064 50.1743L42.7191 51.0475ZM46.3025 52.8356C46.9308 53.1133 47.5515 53.3693 48.162 53.6045L48.5215 52.6714C47.926 52.442 47.3202 52.1921 46.7068 51.9209L46.3025 52.8356ZM50.0507 54.2783C50.7114 54.495 51.3558 54.6864 51.9801 54.8535L52.2386 53.8875C51.6325 53.7253 51.0058 53.5392 50.3624 53.3281L50.0507 54.2783ZM53.9355 55.313C54.2741 55.3811 54.6045 55.4411 54.926 55.4935L55.0867 54.5065C54.7778 54.4562 54.4594 54.3983 54.1325 54.3326L53.9355 55.313Z" fill="black"/>
<path d="M26.0063 7L23.2949 12.0972L29.0649 11.8968L26.0063 7ZM25.5416 8.02402C25.5535 8.29991 25.7867 8.51396 26.0626 8.50211C26.3385 8.49026 26.5526 8.257 26.5407 7.98112L25.5416 8.02402ZM26.657 9.93469C26.6359 9.65935 26.3957 9.45319 26.1203 9.47422C25.845 9.49526 25.6389 9.73551 25.6599 10.0109L26.657 9.93469ZM25.8473 12.0056C25.8779 12.28 26.1253 12.4776 26.3997 12.4469C26.6741 12.4162 26.8717 12.1689 26.8411 11.8945L25.8473 12.0056ZM27.0953 13.8457C27.0545 13.5725 26.8001 13.3841 26.527 13.4249C26.2539 13.4656 26.0655 13.72 26.1062 13.9931L27.0953 13.8457ZM26.4386 15.9654C26.4897 16.2368 26.7512 16.4153 27.0225 16.3642C27.2939 16.3131 27.4725 16.0516 27.4213 15.7803L26.4386 15.9654ZM27.8217 17.697C27.7598 17.4279 27.4915 17.2598 27.2224 17.3217C26.9533 17.3835 26.7852 17.6518 26.8471 17.9209L27.8217 17.697ZM27.3342 19.8586C27.4071 20.1249 27.6821 20.2818 27.9485 20.2089C28.2148 20.1361 28.3717 19.8611 28.2988 19.5947L27.3342 19.8586ZM28.8575 21.4788C28.7734 21.2158 28.4919 21.0708 28.2289 21.155C27.9659 21.2392 27.821 21.5207 27.9051 21.7837L28.8575 21.4788ZM28.5585 23.6804C28.6542 23.9395 28.9417 24.0719 29.2008 23.9762C29.4598 23.8805 29.5922 23.593 29.4965 23.3339L28.5585 23.6804ZM30.217 25.1568C30.1097 24.9023 29.8164 24.7831 29.562 24.8904C29.3075 24.9977 29.1882 25.2909 29.2955 25.5454L30.217 25.1568ZM30.117 27.3744C30.2359 27.6236 30.5343 27.7292 30.7836 27.6102C31.0328 27.4913 31.1384 27.1929 31.0194 26.9436L30.117 27.3744ZM31.9041 28.6905C31.7735 28.4471 31.4704 28.3557 31.2271 28.4862C30.9838 28.6168 30.8923 28.9198 31.0229 29.1632L31.9041 28.6905ZM32.0127 30.9073C32.1547 31.1441 32.4618 31.221 32.6986 31.079C32.9355 30.937 33.0123 30.6299 32.8703 30.3931L32.0127 30.9073ZM33.9171 32.0473C33.7638 31.8176 33.4534 31.7556 33.2237 31.9088C32.9939 32.0621 32.9319 32.3725 33.0852 32.6022L33.9171 32.0473ZM34.2385 34.2436C34.4027 34.4657 34.7158 34.5126 34.9378 34.3484C35.1598 34.1842 35.2067 33.8711 35.0425 33.6491L34.2385 34.2436ZM36.2444 35.1945C36.0696 34.9807 35.7546 34.9491 35.5408 35.1238C35.327 35.2986 35.2953 35.6136 35.4701 35.8274L36.2444 35.1945ZM36.7769 37.3497C36.9618 37.5548 37.278 37.5712 37.4831 37.3863C37.6882 37.2014 37.7046 36.8853 37.5197 36.6801L36.7769 37.3497ZM38.8653 38.1026C38.6708 37.9066 38.3542 37.9054 38.1582 38.1C37.9622 38.2945 37.961 38.6111 38.1555 38.8071L38.8653 38.1026ZM39.6021 40.1966C39.8058 40.3831 40.1221 40.3692 40.3086 40.1655C40.4951 39.9619 40.4812 39.6456 40.2775 39.4591L39.6021 40.1966ZM41.7524 40.7469C41.5402 40.5703 41.2249 40.5991 41.0482 40.8113C40.8716 41.0235 40.9004 41.3388 41.1126 41.5155L41.7524 40.7469ZM42.6827 42.7614C42.9029 42.928 43.2165 42.8845 43.3831 42.6642C43.5496 42.4439 43.5061 42.1304 43.2859 41.9638L42.6827 42.7614ZM44.8735 43.1075C44.6457 42.9513 44.3345 43.0093 44.1783 43.2371C44.0222 43.4648 44.0801 43.776 44.3079 43.9322L44.8735 43.1075ZM45.9892 45.0292C46.2239 45.1747 46.5321 45.1024 46.6776 44.8677C46.8232 44.633 46.7509 44.3248 46.5162 44.1793L45.9892 45.0292ZM48.2064 45.1743C47.9653 45.0397 47.6607 45.1261 47.5262 45.3672C47.3916 45.6083 47.478 45.9129 47.7191 46.0475L48.2064 45.1743ZM49.492 46.9841C49.7391 47.1074 50.0393 47.007 50.1626 46.76C50.2859 46.5129 50.1856 46.2126 49.9385 46.0893L49.492 46.9841ZM51.7068 46.9209C51.4542 46.8093 51.159 46.9236 51.0473 47.1761C50.9357 47.4287 51.0499 47.7239 51.3025 47.8356L51.7068 46.9209ZM53.162 48.6045C53.4197 48.7038 53.7091 48.5754 53.8083 48.3177C53.9076 48.0601 53.7792 47.7707 53.5215 47.6714L53.162 48.6045ZM55.3624 48.3281C55.1 48.242 54.8175 48.3849 54.7315 48.6473C54.6454 48.9097 54.7883 49.1922 55.0507 49.2783L55.3624 48.3281ZM56.9801 49.8535C57.2468 49.9249 57.5209 49.7666 57.5923 49.4998C57.6638 49.2331 57.5054 48.9589 57.2386 48.8875L56.9801 49.8535ZM59.1325 49.3326C58.8617 49.2782 58.5982 49.4536 58.5438 49.7243C58.4894 49.9951 58.6648 50.2586 58.9355 50.313L59.1325 49.3326ZM25.6599 10.0109C25.7114 10.6857 25.774 11.3506 25.8473 12.0056L26.8411 11.8945C26.7691 11.2512 26.7076 10.598 26.657 9.93469L25.6599 10.0109ZM26.1062 13.9931C26.2058 14.6613 26.3168 15.3187 26.4386 15.9654L27.4213 15.7803C27.3019 15.1462 27.193 14.5014 27.0953 13.8457L26.1062 13.9931ZM26.8471 17.9209C26.9982 18.5785 27.1607 19.2243 27.3342 19.8586L28.2988 19.5947C28.1289 18.9737 27.9697 18.3412 27.8217 17.697L26.8471 17.9209ZM27.9051 21.7837C28.1116 22.4286 28.3296 23.0608 28.5585 23.6804L29.4965 23.3339C29.2727 22.7281 29.0595 22.1098 28.8575 21.4788L27.9051 21.7837ZM29.2955 25.5454C29.5583 26.1686 29.8324 26.7782 30.117 27.3744L31.0194 26.9436C30.7415 26.3613 30.4738 25.7658 30.217 25.1568L29.2955 25.5454ZM31.0229 29.1632C31.3425 29.759 31.6727 30.3402 32.0127 30.9073L32.8703 30.3931C32.5385 29.8396 32.2161 29.2721 31.9041 28.6905L31.0229 29.1632ZM33.0852 32.6022C33.4603 33.1646 33.8451 33.7116 34.2385 34.2436L35.0425 33.6491C34.6586 33.1299 34.2831 32.5961 33.9171 32.0473L33.0852 32.6022ZM35.4701 35.8274C35.8978 36.3507 36.3338 36.858 36.7769 37.3497L37.5197 36.6801C37.0872 36.2003 36.6617 35.7052 36.2444 35.1945L35.4701 35.8274ZM38.1555 38.8071C38.6317 39.2868 39.1143 39.7498 39.6021 40.1966L40.2775 39.4591C39.8012 39.0229 39.33 38.5709 38.8653 38.1026L38.1555 38.8071ZM41.1126 41.5155C41.6322 41.948 42.156 42.3632 42.6827 42.7614L43.2859 41.9638C42.7714 41.5748 42.2598 41.1693 41.7524 40.7469L41.1126 41.5155ZM44.3079 43.9322C44.8674 44.316 45.4284 44.6814 45.9892 45.0292L46.5162 44.1793C45.9683 43.8395 45.4201 43.4824 44.8735 43.1075L44.3079 43.9322ZM47.7191 46.0475C48.313 46.379 48.9046 46.6909 49.492 46.9841L49.9385 46.0893C49.3647 45.803 48.7867 45.4981 48.2064 45.1743L47.7191 46.0475ZM51.3025 47.8356C51.9308 48.1133 52.5515 48.3693 53.162 48.6045L53.5215 47.6714C52.926 47.442 52.3202 47.1921 51.7068 46.9209L51.3025 47.8356ZM55.0507 49.2783C55.7114 49.495 56.3558 49.6864 56.9801 49.8535L57.2386 48.8875C56.6325 48.7253 56.0058 48.5392 55.3624 48.3281L55.0507 49.2783ZM58.9355 50.313C59.2741 50.3811 59.6045 50.4411 59.926 50.4935L60.0867 49.5065C59.7778 49.4562 59.4594 49.3983 59.1325 49.3326L58.9355 50.313Z" fill="black"/>
<path d="M13.0284 28.1817V27.2953L15.6875 24.9317C15.9526 24.6969 16.1742 24.4866 16.3522 24.301C16.5303 24.1154 16.6647 23.9355 16.7556 23.7613C16.8465 23.587 16.892 23.4014 16.892 23.2044C16.892 22.8635 16.7613 22.5927 16.5 22.3919C16.2386 22.1912 15.9147 22.0908 15.5284 22.0908C15.1193 22.0908 14.7897 22.2006 14.5397 22.4203C14.2897 22.6363 14.1647 22.9203 14.1647 23.2726H12.9829C12.9829 22.6249 13.2234 22.1041 13.7045 21.7101C14.1856 21.3124 14.8011 21.1135 15.5511 21.1135C16.0511 21.1135 16.4905 21.2044 16.8693 21.3863C17.2481 21.5643 17.5435 21.8105 17.7556 22.1249C17.9678 22.4355 18.0738 22.7878 18.0738 23.1817C18.0738 23.4923 18.0113 23.7802 17.8863 24.0453C17.7613 24.3105 17.5662 24.5851 17.3011 24.8692C17.0359 25.1533 16.695 25.4772 16.2784 25.8408L14.8011 27.1363V27.1817H18.2784V28.1817H13.0284Z" fill="black"/>
<path d="M11.2727 28.1819C11.2727 29.4091 11.0511 30.4697 10.608 31.3637C10.1648 32.2576 9.55682 32.947 8.78409 33.4319C8.01136 33.9167 7.12879 34.1591 6.13636 34.1591C5.14394 34.1591 4.26136 33.9167 3.48864 33.4319C2.71591 32.947 2.10795 32.2576 1.66477 31.3637C1.22159 30.4697 1 29.4091 1 28.1819C1 26.9546 1.22159 25.894 1.66477 25C2.10795 24.1061 2.71591 23.4167 3.48864 22.9319C4.26136 22.447 5.14394 22.2046 6.13636 22.2046C7.12879 22.2046 8.01136 22.447 8.78409 22.9319C9.55682 23.4167 10.1648 24.1061 10.608 25C11.0511 25.894 11.2727 26.9546 11.2727 28.1819ZM9.90909 28.1819C9.90909 27.1743 9.74053 26.3239 9.40341 25.6307C9.07008 24.9375 8.61742 24.4129 8.04545 24.0569C7.47727 23.7008 6.84091 23.5228 6.13636 23.5228C5.43182 23.5228 4.79356 23.7008 4.22159 24.0569C3.65341 24.4129 3.20076 24.9375 2.86364 25.6307C2.5303 26.3239 2.36364 27.1743 2.36364 28.1819C2.36364 29.1894 2.5303 30.0398 2.86364 30.733C3.20076 31.4262 3.65341 31.9508 4.22159 32.3069C4.79356 32.6629 5.43182 32.841 6.13636 32.841C6.84091 32.841 7.47727 32.6629 8.04545 32.3069C8.61742 31.9508 9.07008 31.4262 9.40341 30.733C9.74053 30.0398 9.90909 29.1894 9.90909 28.1819Z" fill="black"/>
</svg>
