<svg width="20" height="20" viewBox="0 0 20 20" fill="none" xmlns="http://www.w3.org/2000/svg">
<g clip-path="url(#clip0_4423_208)">
<path d="M17.1003 2.61997C15.4107 0.930342 13.1641 -9.45014e-05 10.7747 7.19903e-09C10.3832 7.19903e-09 10.0659 0.31736 10.0659 0.708814C10.0659 1.10027 10.3833 1.41763 10.7747 1.41763C12.7855 1.41753 14.676 2.20054 16.0978 3.62242C17.5198 5.0443 18.3028 6.93485 18.3027 8.94571C18.3027 9.33716 18.62 9.65452 19.0115 9.65452C19.403 9.65452 19.7203 9.33716 19.7203 8.9458C19.7204 6.55615 18.79 4.30959 17.1003 2.61997Z" fill="#160B75"/>
<path d="M14.1845 8.94596C14.1845 9.33741 14.5019 9.65477 14.8934 9.65468C15.2849 9.65468 15.6021 9.33732 15.6021 8.94586C15.6019 6.2845 13.4364 4.11903 10.7748 4.11865C10.7747 4.11865 10.7748 4.11865 10.7747 4.11865C10.3833 4.11865 10.066 4.43592 10.0659 4.82737C10.0659 5.21883 10.3832 5.53619 10.7746 5.53628C12.6547 5.53656 14.1843 7.06609 14.1845 8.94596Z" fill="#160B75"/>
<path fill-rule="evenodd" clip-rule="evenodd" d="M7.71823 7.65977C7.6568 6.52736 5.45399 3.52852 4.40145 3.1415C3.93335 2.96704 3.44096 2.96402 2.93741 3.133C1.80444 3.51453 0.98619 4.1948 0.571108 5.10019C0.168501 5.97855 0.18126 6.99764 0.608439 8.04782C1.7105 10.7519 3.25241 13.1179 5.19125 15.0804C5.19598 15.0852 5.2008 15.0899 5.20571 15.0946C7.16677 17.0298 9.53005 18.5689 12.2305 19.6696C12.7713 19.8895 13.3039 19.9996 13.8132 19.9996C14.2927 19.9996 14.7518 19.9021 15.1777 19.7069C16.0832 19.2919 16.7634 18.4737 17.1452 17.34C17.3138 16.8374 17.311 16.3452 17.1379 15.8793C16.7496 14.8239 13.7507 12.6211 12.6165 12.5595C11.7123 12.5126 11.1794 13.0677 10.8748 13.4763L6.80189 9.40308C7.21048 9.09889 7.76487 8.56654 7.71823 7.65977ZM11.8918 14.4934C12.2037 14.0374 12.345 13.9657 12.5367 13.9747C13.1501 14.0468 15.5662 15.8174 15.8082 16.371C15.8688 16.534 15.8666 16.6938 15.8014 16.8882C15.5478 17.6411 15.1279 18.1701 14.5869 18.4181C14.073 18.6537 13.4429 18.6324 12.7652 18.3566C10.2345 17.3251 8.02358 15.8857 6.1939 14.0781L6.19172 14.0759C4.38793 12.2481 2.95112 10.04 1.92135 7.51318C1.64548 6.8349 1.62412 6.20471 1.85973 5.69087C2.10772 5.1499 2.63678 4.73 3.38898 4.47662C3.58404 4.41122 3.74357 4.40915 3.90509 4.46925C4.4607 4.71205 6.23113 7.12806 6.30258 7.73462C6.31279 7.93346 6.24049 8.07466 5.78486 8.38597C5.38435 8.64613 4.75 9.33313 5.41667 9.9998L10.4167 14.9998C10.6934 15.17 11.376 15.3071 11.8918 14.4934Z" fill="#160B75"/>
</g>
<defs>
<clipPath id="clip0_4423_208">
<rect width="20" height="20" fill="white"/>
</clipPath>
</defs>
</svg>
