<?xml version="1.0" encoding="utf-8"?><svg viewBox="0 0 18 20" xmlns="http://www.w3.org/2000/svg" xmlns:xlink="http://www.w3.org/1999/xlink"><style>:root>svg{display:none}:root>svg:target{display:block}</style><svg viewBox="0 0 18 19" id="arrow-down" xmlns="http://www.w3.org/2000/svg"><path d="M7.833 14.87V1.834c0-.33.112-.607.335-.831C8.392.778 8.67.667 9 .667c.33 0 .607.111.83.335.225.224.336.5.336.831v13.038l5.717-5.717c.233-.233.506-.345.817-.335.31.01.583.13.816.364.214.233.326.506.336.817.01.31-.102.583-.336.816l-7.7 7.7c-.116.117-.243.2-.379.248a1.292 1.292 0 01-.437.073c-.156 0-.302-.024-.438-.073a1.023 1.023 0 01-.38-.247l-7.7-7.7a1.088 1.088 0 01-.32-.803c0-.32.107-.598.32-.83.234-.234.511-.35.832-.35.321 0 .598.116.831.35l5.688 5.687z"/></svg><svg viewBox="0 0 14 14" id="cleaner" xmlns="http://www.w3.org/2000/svg"><path d="M7 8.4l-4.9 4.9a.948.948 0 01-.7.275.948.948 0 01-.7-.275.948.948 0 01-.275-.7c0-.283.091-.517.275-.7L5.6 7 .7 2.1a.948.948 0 01-.275-.7c0-.283.091-.517.275-.7a.948.948 0 01.7-.275c.283 0 .516.092.7.275L7 5.6 11.9.7a.948.948 0 01.7-.275.95.95 0 01.7.275.948.948 0 01.275.7.948.948 0 01-.275.7L8.4 7l4.9 4.9a.949.949 0 01.275.7.948.948 0 01-.275.7.948.948 0 01-.7.275.948.948 0 01-.7-.275L7 8.4z" fill-opacity=".6"/></svg><svg viewBox="0 0 16 20" id="point-map" xmlns="http://www.w3.org/2000/svg"><path d="M8 19.325a2.07 2.07 0 01-.7-.125 1.84 1.84 0 01-.625-.375A39.112 39.112 0 013.8 15.9c-.833-.95-1.53-1.87-2.087-2.763-.559-.891-.984-1.75-1.276-2.575C.147 9.739 0 8.95 0 8.2c0-2.5.804-4.492 2.413-5.975C4.02.742 5.883 0 8 0c2.117 0 3.98.742 5.588 2.225S16 5.7 16 8.2c0 .75-.146 1.538-.438 2.363-.291.824-.716 1.683-1.274 2.574A21.678 21.678 0 0112.2 15.9a39.112 39.112 0 01-2.875 2.925 1.84 1.84 0 01-.625.375 2.07 2.07 0 01-.7.125zM8 10c.55 0 1.02-.196 1.412-.588C9.804 9.021 10 8.55 10 8c0-.55-.196-1.02-.588-1.412A1.926 1.926 0 008 6c-.55 0-1.02.196-1.412.588A1.926 1.926 0 006 8c0 .55.196 1.02.588 1.412C6.979 9.804 7.45 10 8 10z"/></svg><svg viewBox="0 0 18 18" id="search" xmlns="http://www.w3.org/2000/svg"><path d="M16.6 18l-6.3-6.3A6.096 6.096 0 016.5 13c-1.817 0-3.354-.63-4.612-1.887C.629 9.854 0 8.317 0 6.5c0-1.817.63-3.354 1.887-4.612C3.146.629 4.683 0 6.5 0c1.817 0 3.354.63 4.613 1.887C12.37 3.146 13 4.683 13 6.5a6.096 6.096 0 01-1.3 3.8l6.3 6.3-1.4 1.4zM6.5 11c1.25 0 2.313-.438 3.188-1.313C10.562 8.813 11 7.75 11 6.5c0-1.25-.438-2.313-1.313-3.188C8.813 2.438 7.75 2 6.5 2c-1.25 0-2.313.438-3.188 1.313C2.438 4.186 2 5.25 2 6.5c0 1.25.438 2.313 1.313 3.188C4.186 10.562 5.25 11 6.5 11z"/></svg></svg>