<svg width="60" height="60" viewBox="0 0 60 60" fill="none" xmlns="http://www.w3.org/2000/svg">
<circle cx="12.4718" cy="47.4718" r="8.16737" transform="rotate(20.0422 12.4718 47.4718)" fill="#E0EDFF"/>
<g clip-path="url(#clip0_47_330)">
<path fill-rule="evenodd" clip-rule="evenodd" d="M26.8385 38.9549C26.5413 38.9849 26.2428 39 25.9441 39C23.572 39 21.297 38.0518 19.6197 36.364C17.9423 34.6761 17 32.3869 17 30C17 27.6131 17.9423 25.3239 19.6197 23.636C21.297 21.9482 23.572 21 25.9441 21C26.2428 21 26.5413 21.0151 26.8385 21.0451V23.7451C26.5418 23.7086 26.2429 23.6935 25.9441 23.7C24.2836 23.7 22.6911 24.3637 21.517 25.5452C20.3429 26.7267 19.6832 28.3291 19.6832 30C19.6832 31.6709 20.3429 33.2733 21.517 34.4548C22.6911 35.6363 24.2836 36.3 25.9441 36.3C26.2429 36.3065 26.5418 36.2914 26.8385 36.2549V38.9549Z" fill="black"/>
<path fill-rule="evenodd" clip-rule="evenodd" d="M42.0436 38.9549C41.7464 38.9849 41.4479 39 41.1492 39C38.7771 39 36.5021 38.0518 34.8247 36.364C33.1474 34.6761 32.2051 32.3869 32.2051 30C32.2051 27.6131 33.1474 25.3239 34.8247 23.636C36.5021 21.9482 38.7771 21 41.1492 21C41.4479 21 41.7464 21.0151 42.0436 21.0451V23.7451C41.7469 23.7086 41.448 23.6935 41.1492 23.7C39.7217 23.6999 38.337 24.1906 37.2247 25.0909C36.1123 25.9912 35.3391 27.2469 35.0332 28.65H40.2548V31.35H35.0332C35.3391 32.7531 36.1123 34.0088 37.2247 34.9091C38.337 35.8094 39.7217 36.3001 41.1492 36.3C41.448 36.3065 41.7469 36.2914 42.0436 36.2549V38.9549Z" fill="black"/>
</g>
<path d="M11.0012 50.9585L13.3292 48.6305L13.9615 47.9982L16.0775 45.8822L15.5159 45.3205L13.377 47.4594L12.7454 48.0909L11.0012 49.8352L8.73933 47.5733L8.17766 48.1349L11.0012 50.9585ZM12.1455 55C11.1578 55 10.2291 54.8126 9.3596 54.4377C8.49007 54.0628 7.73368 53.5541 7.09046 52.9115C6.44724 52.2689 5.93803 51.5132 5.56282 50.6445C5.18761 49.7758 5 48.8475 5 47.8598C5 46.8721 5.18743 45.9434 5.56228 45.0739C5.93715 44.2043 6.44589 43.448 7.08851 42.8047C7.73113 42.1615 8.4868 41.6523 9.35552 41.2771C10.2242 40.9019 11.1525 40.7143 12.1402 40.7143C13.1279 40.7143 14.0566 40.9017 14.9261 41.2766C15.7956 41.6514 16.552 42.1602 17.1953 42.8028C17.8385 43.4454 18.3477 44.2011 18.7229 45.0698C19.0981 45.9385 19.2857 46.8668 19.2857 47.8545C19.2857 48.8422 19.0983 49.7709 18.7234 50.6404C18.3486 51.5099 17.8398 52.2663 17.1972 52.9095C16.5546 53.5528 15.7989 54.062 14.9302 54.4372C14.0615 54.8124 13.1332 55 12.1455 55ZM12.1429 54.2063C13.9153 54.2063 15.4167 53.5913 16.6468 52.3611C16.9026 52.1054 17.1317 51.8379 17.3343 51.5587C17.5114 51.3146 17.6683 51.0615 17.8048 50.7994C18.263 49.9197 18.4921 48.9389 18.4921 47.8571C18.4921 46.0847 17.877 44.5833 16.6468 43.3532C15.4167 42.123 13.9153 41.5079 12.1429 41.5079C11.0611 41.5079 10.0803 41.737 9.20057 42.1953C8.9385 42.3317 8.68541 42.4886 8.44126 42.6657C8.16209 42.8683 7.89463 43.0974 7.63889 43.3532C6.40873 44.5833 5.79365 46.0847 5.79365 47.8571C5.79365 49.6296 6.40873 51.131 7.63889 52.3611C8.86905 53.5913 10.3704 54.2063 12.1429 54.2063Z" fill="#1C1B1F"/>
<path fill-rule="evenodd" clip-rule="evenodd" d="M30 54.1071C43.314 54.1071 54.1071 43.314 54.1071 30C54.1071 16.686 43.314 5.89286 30 5.89286C16.686 5.89286 5.89286 16.686 5.89286 30C5.89286 34.4496 7.09835 38.6176 9.20057 42.1953C8.9385 42.3317 8.68541 42.4886 8.44126 42.6657C6.25437 38.9513 5 34.6222 5 30C5 16.1929 16.1929 5 30 5C43.8071 5 55 16.1929 55 30C55 43.8071 43.8071 55 30 55C25.3778 55 21.0487 53.7456 17.3343 51.5587C17.5114 51.3146 17.6683 51.0615 17.8048 50.7994C21.3824 52.9016 25.5504 54.1071 30 54.1071ZM13.9615 47.9982C13.7637 47.8218 13.5688 47.6422 13.377 47.4594L12.7454 48.0909C12.9372 48.2738 13.1318 48.4537 13.3292 48.6305L13.9615 47.9982Z" fill="black"/>
<defs>
<clipPath id="clip0_47_330">
<rect width="25.0435" height="18" fill="white" transform="translate(17 21)"/>
</clipPath>
</defs>
</svg>
