<svg width="24" height="24" viewBox="0 0 24 24" fill="none" xmlns="http://www.w3.org/2000/svg">
<path d="M12 18.9336L5.45379 23.8529C5.26069 23.9673 5.07724 24.015 4.90345 23.9959C4.72966 23.9768 4.56552 23.9292 4.41103 23.8529C4.25655 23.7766 4.14069 23.6527 4.06345 23.4811C3.98621 23.3095 3.98621 23.1284 4.06345 22.9377L6.55448 14.8151L0.413793 10.4106C0.22069 10.2962 0.0951724 10.1532 0.0372414 9.98161C-0.0206897 9.81001 -0.0110345 9.62887 0.0662069 9.4382C0.143448 9.24753 0.249655 9.10453 0.384828 9.00919C0.52 8.91386 0.684138 8.86619 0.877241 8.86619H8.64L11.189 0.629214C11.2662 0.438543 11.3724 0.286006 11.5076 0.171604C11.6428 0.0572012 11.8069 0 12 0C12.1931 0 12.3572 0.0572012 12.4924 0.171604C12.6276 0.286006 12.7338 0.438543 12.811 0.629214L15.36 8.86619H23.1228C23.3159 8.86619 23.48 8.91386 23.6152 9.00919C23.7503 9.10453 23.8566 9.24753 23.9338 9.4382C24.011 9.62887 24.0207 9.81001 23.9628 9.98161C23.9048 10.1532 23.7793 10.2962 23.5862 10.4106L17.4455 14.8151L19.9366 22.9377C20.0138 23.1284 20.0138 23.3095 19.9366 23.4811C19.8593 23.6527 19.7434 23.7766 19.589 23.8529C19.4345 23.9292 19.2703 23.9768 19.0966 23.9959C18.9228 24.015 18.7393 23.9673 18.5462 23.8529L12 18.9336Z" fill="#FFBC10"/>
</svg>
