<svg width="16" height="16" viewBox="0 0 16 16" fill="none" xmlns="http://www.w3.org/2000/svg">
<g clip-path="url(#clip0_4423_198)">
<path d="M8 0C3.58891 0 0 3.58872 0 8C0 12.4113 3.58891 16 8 16C12.4113 16 16 12.4113 16 8C16 3.58872 12.4111 0 8 0ZM8 14.8321C4.23281 14.8321 1.16788 11.7672 1.16788 8C1.16788 4.23281 4.23281 1.16788 8 1.16788C11.7672 1.16788 14.8321 4.23278 14.8321 7.99981C14.8321 11.7672 11.7672 14.8321 8 14.8321Z" fill="#160B75"/>
<path d="M10.7251 8.00019H8.19473V4.49654C8.19473 4.174 7.93332 3.9126 7.61079 3.9126C7.28826 3.9126 7.02686 4.174 7.02686 4.49654V8.58413C7.02686 8.90666 7.28826 9.16807 7.61079 9.16807H10.7251C11.0477 9.16807 11.3091 8.90666 11.3091 8.58413C11.3091 8.2616 11.0477 8.00019 10.7251 8.00019Z" fill="#160B75"/>
</g>
<defs>
<clipPath id="clip0_4423_198">
<rect width="16" height="16" fill="white"/>
</clipPath>
</defs>
</svg>
